<svg viewBox="0 0 1100 1000" role="img" aria-labelledby="title desc" xmlns="http://www.w3.org/2000/svg">
  <title id="title">日本ショップの商品URLを入力</title>
  <desc id="desc">日本の商品ページからURLをコピーしてJ-Planetへ入力する画面</desc>
  <defs>
    <linearGradient id="bg" x1="80" y1="50" x2="980" y2="950" gradientUnits="userSpaceOnUse">
      <stop stop-color="#fff4f5"/><stop offset="1" stop-color="#f3f6fb"/>
    </linearGradient>
    <filter id="shadow" x="-20%" y="-20%" width="140%" height="150%"><feDropShadow dx="0" dy="22" stdDeviation="22" flood-color="#1f3864" flood-opacity=".14"/></filter>
  </defs>
  <rect width="1100" height="1000" rx="64" fill="url(#bg)"/>
  <circle cx="932" cy="130" r="92" fill="#fea2ac" opacity=".18"/>
  <circle cx="130" cy="860" r="120" fill="#1f3864" opacity=".08"/>
  <g filter="url(#shadow)">
    <rect x="116" y="90" width="868" height="820" rx="42" fill="#ffffff"/>
  </g>
  <g transform="translate(164 132)">
    <circle cx="28" cy="28" r="28" fill="#fff4f5"/>
    <path d="M28 12c5 8 14 8 14 17 0 8-6 14-14 14S14 37 14 29c0-9 9-9 14-17Z" fill="#fea2ac"/>
    <circle cx="28" cy="29" r="7" fill="#1f3864"/>
    <text x="70" y="38" fill="#1f3864" font-family="Arial, sans-serif" font-size="34" font-weight="800">J-Planet</text>
  </g>
  <text x="164" y="250" fill="#1f2e4f" font-family="Arial, sans-serif" font-size="44" font-weight="800">日本ショップの商品URL</text>
  <text x="164" y="300" fill="#667085" font-family="Arial, sans-serif" font-size="24">欲しい商品のページを開いてURLをコピー</text>
  <g transform="translate(164 350)">
    <rect width="772" height="92" rx="24" fill="#f3f6fb" stroke="#d6deea" stroke-width="3"/>
    <circle cx="50" cy="46" r="18" fill="none" stroke="#1f3864" stroke-width="5"/>
    <path d="m63 59 18 18" stroke="#1f3864" stroke-width="5" stroke-linecap="round"/>
    <text x="104" y="56" fill="#667085" font-family="Arial, sans-serif" font-size="24">japan-shop.jp/item/sakura-collection</text>
  </g>
  <g transform="translate(164 480)">
    <rect width="772" height="254" rx="30" fill="#ffffff" stroke="#e5eaf1" stroke-width="3"/>
    <rect x="26" y="26" width="210" height="202" rx="24" fill="#fff4f5"/>
    <circle cx="131" cy="108" r="58" fill="#fea2ac" opacity=".55"/>
    <path d="M80 166c32-55 72-83 111-94-10 44-36 80-82 111Z" fill="#ffffff"/>
    <text x="272" y="67" fill="#1f3864" font-family="Arial, sans-serif" font-size="20" font-weight="700">日本限定</text>
    <text x="272" y="116" fill="#1f2e4f" font-family="Arial, sans-serif" font-size="31" font-weight="800">桜コレクション</text>
    <text x="272" y="159" fill="#667085" font-family="Arial, sans-serif" font-size="21">公式オンラインショップ</text>
    <text x="272" y="207" fill="#1f3864" font-family="Arial, sans-serif" font-size="30" font-weight="800">¥5,480</text>
  </g>
  <g transform="translate(164 776)">
    <rect width="772" height="86" rx="43" fill="#1f3864"/>
    <text x="386" y="54" text-anchor="middle" fill="#ffffff" font-family="Arial, sans-serif" font-size="26" font-weight="800">URLをコピーしてJ-Planetへ</text>
    <path d="m700 32 20 11-20 11" fill="none" stroke="#fea2ac" stroke-width="6" stroke-linecap="round" stroke-linejoin="round"/>
  </g>
</svg>
